<?xml version="1.0" encoding="UTF-8" standalone="no"?>
<!DOCTYPE svg PUBLIC "-//W3C//DTD SVG 1.1//EN" "http://www.w3.org/Graphics/SVG/1.1/DTD/svg11.dtd">
<svg width="100%" height="100%" viewBox="0 0 3508 2481" version="1.1" xmlns="http://www.w3.org/2000/svg" xmlns:xlink="http://www.w3.org/1999/xlink" xml:space="preserve" xmlns:serif="http://www.serif.com/" style="fill-rule:evenodd;clip-rule:evenodd;stroke-linejoin:round;stroke-miterlimit:10;">
    <g transform="matrix(1.12903,0,0,1,660.465,357.349)">
        <rect x="236.22" y="472.441" width="1464.57" height="1062.99" style="fill:none;"/>
    </g>
    <g transform="matrix(4.16667,0,0,4.16667,935.902,823.753)">
        <rect x="0" y="0" width="1" height="1" style="fill:none;"/>
    </g>
    <g transform="matrix(4.16667,0,0,4.16667,935.902,823.753)">
        <path d="M137.78,216.53L137.78,5.48" style="fill:none;fill-rule:nonzero;stroke:rgb(235,235,235);stroke-width:1px;"/>
    </g>
    <g transform="matrix(4.16667,0,0,4.16667,935.902,823.753)">
        <path d="M184.08,216.53L184.08,5.48" style="fill:none;fill-rule:nonzero;stroke:rgb(235,235,235);stroke-width:1px;"/>
    </g>
    <g transform="matrix(4.16667,0,0,4.16667,935.902,823.753)">
        <path d="M230.37,216.53L230.37,5.48" style="fill:none;fill-rule:nonzero;stroke:rgb(235,235,235);stroke-width:1px;"/>
    </g>
    <g transform="matrix(4.16667,0,0,4.16667,935.902,823.753)">
        <path d="M276.67,216.53L276.67,5.48" style="fill:none;fill-rule:nonzero;stroke:rgb(235,235,235);stroke-width:1px;"/>
    </g>
    <g transform="matrix(4.16667,0,0,4.16667,935.902,823.753)">
        <path d="M322.97,216.53L322.97,5.48" style="fill:none;fill-rule:nonzero;stroke:rgb(235,235,235);stroke-width:1px;"/>
    </g>
    <g transform="matrix(4.16667,0,0,4.16667,935.902,823.753)">
        <path d="M369.26,216.53L369.26,5.48" style="fill:none;fill-rule:nonzero;stroke:rgb(235,235,235);stroke-width:1px;"/>
    </g>
    <g transform="matrix(4.16667,0,0,4.16667,935.902,823.753)">
        <rect x="137.78" y="20.46" width="163.81" height="11.72" style="fill:rgb(0,142,143);"/>
    </g>
    <g transform="matrix(4.16667,0,0,4.16667,935.902,823.753)">
        <rect x="137.78" y="33.49" width="148.53" height="11.72" style="fill:rgb(0,142,143);"/>
    </g>
    <g transform="matrix(4.16667,0,0,4.16667,935.902,823.753)">
        <rect x="137.78" y="72.57" width="50.88" height="11.72" style="fill:rgb(0,142,143);"/>
    </g>
    <g transform="matrix(4.16667,0,0,4.16667,935.902,823.753)">
        <rect x="137.78" y="163.77" width="8.82" height="11.72" style="fill:rgb(199,198,196);"/>
    </g>
    <g transform="matrix(4.16667,0,0,4.16667,935.902,823.753)">
        <rect x="137.78" y="137.71" width="10.56" height="11.72" style="fill:rgb(199,198,196);"/>
    </g>
    <g transform="matrix(4.16667,0,0,4.16667,935.902,823.753)">
        <rect x="137.78" y="98.63" width="26.95" height="11.72" style="fill:rgb(199,198,196);"/>
    </g>
    <g transform="matrix(4.16667,0,0,4.16667,935.902,823.753)">
        <rect x="137.78" y="46.52" width="93.06" height="11.72" style="fill:rgb(0,142,143);"/>
    </g>
    <g transform="matrix(4.16667,0,0,4.16667,935.902,823.753)">
        <rect x="137.78" y="202.85" width="5.38" height="11.72" style="fill:rgb(199,198,196);"/>
    </g>
    <g transform="matrix(4.16667,0,0,4.16667,935.902,823.753)">
        <rect x="137.78" y="59.54" width="77.34" height="11.72" style="fill:rgb(0,142,143);"/>
    </g>
    <g transform="matrix(4.16667,0,0,4.16667,935.902,823.753)">
        <rect x="137.78" y="7.43" width="241.51" height="11.72" style="fill:rgb(0,142,143);"/>
    </g>
    <g transform="matrix(4.16667,0,0,4.16667,935.902,823.753)">
        <rect x="137.78" y="85.6" width="46.18" height="11.72" style="fill:rgb(199,198,196);"/>
    </g>
    <g transform="matrix(4.16667,0,0,4.16667,935.902,823.753)">
        <rect x="137.78" y="150.74" width="9.84" height="11.72" style="fill:rgb(199,198,196);"/>
    </g>
    <g transform="matrix(4.16667,0,0,4.16667,935.902,823.753)">
        <rect x="137.78" y="124.68" width="14.35" height="11.72" style="fill:rgb(199,198,196);"/>
    </g>
    <g transform="matrix(4.16667,0,0,4.16667,935.902,823.753)">
        <rect x="137.78" y="176.79" width="7.24" height="11.72" style="fill:rgb(199,198,196);"/>
    </g>
    <g transform="matrix(4.16667,0,0,4.16667,935.902,823.753)">
        <rect x="137.78" y="111.66" width="21.67" height="11.72" style="fill:rgb(199,198,196);"/>
    </g>
    <g transform="matrix(4.16667,0,0,4.16667,935.902,823.753)">
        <rect x="137.78" y="189.82" width="6.72" height="11.72" style="fill:rgb(199,198,196);"/>
    </g>
    <g transform="matrix(4.16667,0,0,4.16667,1439.11,1707.71)">
        <text x="-114.288px" y="0px" style="font-family:'Lato-Regular', 'Lato', sans-serif;font-size:9.6px;fill:rgb(111,110,106);">Mecklenburg-<tspan x="-55.814px -49.843px " y="0px 0px ">Vo</tspan>rpommern</text>
    </g>
    <g transform="matrix(4.16667,0,0,4.16667,1439.11,1653.42)">
        <text x="-43.277px" y="0px" style="font-family:'Lato-Regular', 'Lato', sans-serif;font-size:9.6px;fill:rgb(111,110,106);">Thüringen</text>
    </g>
    <g transform="matrix(4.16667,0,0,4.16667,1439.11,1599.13)">
        <text x="-65.501px" y="0px" style="font-family:'Lato-Regular', 'Lato', sans-serif;font-size:9.6px;fill:rgb(111,110,106);">Sachsen-<tspan x="-28.109px " y="0px ">A</tspan>nhalt</text>
    </g>
    <g transform="matrix(4.16667,0,0,4.16667,1439.11,1544.84)">
        <text x="-55.315px" y="0px" style="font-family:'Lato-Regular', 'Lato', sans-serif;font-size:9.6px;fill:rgb(111,110,106);">Br<tspan x="-45.418px " y="0px ">a</tspan>ndenburg</text>
    </g>
    <g transform="matrix(4.16667,0,0,4.16667,1439.11,1490.59)">
        <text x="-36.72px" y="0px" style="font-family:'Lato-Regular', 'Lato', sans-serif;font-size:9.6px;fill:rgb(111,110,106);">Saarland</text>
    </g>
    <g transform="matrix(4.16667,0,0,4.16667,1439.11,1436.29)">
        <text x="-33.36px" y="0px" style="font-family:'Lato-Regular', 'Lato', sans-serif;font-size:9.6px;fill:rgb(111,110,106);">Bremen</text>
    </g>
    <g transform="matrix(4.16667,0,0,4.16667,1439.11,1382)">
        <text x="-34.31px" y="0px" style="font-family:'Lato-Regular', 'Lato', sans-serif;font-size:9.6px;fill:rgb(111,110,106);">Sachsen</text>
    </g>
    <g transform="matrix(4.16667,0,0,4.16667,1439.11,1327.71)">
        <text x="-80.237px" y="0px" style="font-family:'Lato-Regular', 'Lato', sans-serif;font-size:9.6px;fill:rgb(111,110,106);">Schleswig-Holstein</text>
    </g>
    <g transform="matrix(4.16667,0,0,4.16667,1439.11,1273.42)">
        <text x="-39.485px" y="0px" style="font-family:'Lato-Regular', 'Lato', sans-serif;font-size:9.6px;fill:rgb(111,110,106);">Hamburg</text>
    </g>
    <g transform="matrix(4.16667,0,0,4.16667,1439.11,1219.17)">
        <text x="-66.566px" y="0px" style="font-family:'Lato-Regular', 'Lato', sans-serif;font-size:9.6px;fill:rgb(111,110,106);">Rheinland-Pfalz</text>
    </g>
    <g transform="matrix(4.16667,0,0,4.16667,1439.11,1164.88)">
        <text x="-25.968px" y="0px" style="font-family:'Lato-Bold', 'Lato', sans-serif;font-weight:700;font-size:9.6px;fill:rgb(0,142,143);">Berlin</text>
    </g>
    <g transform="matrix(4.16667,0,0,4.16667,1439.11,1110.59)">
        <text x="-63.557px" y="0px" style="font-family:'Lato-Bold', 'Lato', sans-serif;font-weight:700;font-size:9.6px;fill:rgb(0,142,143);">Niedersachsen</text>
    </g>
    <g transform="matrix(4.16667,0,0,4.16667,1439.11,1056.29)">
        <text x="-31.368px" y="0px" style="font-family:'Lato-Bold', 'Lato', sans-serif;font-weight:700;font-size:9.6px;fill:rgb(0,142,143);">Hessen</text>
    </g>
    <g transform="matrix(4.16667,0,0,4.16667,1439.11,1002.04)">
        <text x="-30.581px" y="0px" style="font-family:'Lato-Bold', 'Lato', sans-serif;font-weight:700;font-size:9.6px;fill:rgb(0,142,143);">Ba<tspan x="-19.474px -14.51px " y="0px 0px ">ye</tspan>rn</text>
    </g>
    <g transform="matrix(4.16667,0,0,4.16667,1439.11,947.753)">
        <text x="-90.178px" y="0px" style="font-family:'Lato-Bold', 'Lato', sans-serif;font-weight:700;font-size:9.6px;fill:rgb(0,142,143);">Baden-<tspan x="-59.563px " y="0px ">W</tspan>ürttemberg</text>
    </g>
    <g transform="matrix(4.16667,0,0,4.16667,1439.11,893.462)">
        <text x="-92.424px" y="0px" style="font-family:'Lato-Bold', 'Lato', sans-serif;font-weight:700;font-size:9.6px;fill:rgb(0,142,143);">Nordrhein-<tspan x="-44.472px -34.622px " y="0px 0px ">We</tspan>stfalen</text>
    </g>
    <g transform="matrix(4.16667,0,0,4.16667,1509.99,1773.79)">
        <text x="-2.784px" y="0px" style="font-family:'Lato-Regular', 'Lato', sans-serif;font-size:9.6px;fill:rgb(77,77,77);">0</text>
    </g>
    <g transform="matrix(4.16667,0,0,4.16667,1702.9,1773.79)">
        <text x="-2.784px" y="0px" style="font-family:'Lato-Regular', 'Lato', sans-serif;font-size:9.6px;fill:rgb(77,77,77);">1</text>
    </g>
    <g transform="matrix(4.16667,0,0,4.16667,1895.78,1773.79)">
        <text x="-2.784px" y="0px" style="font-family:'Lato-Regular', 'Lato', sans-serif;font-size:9.6px;fill:rgb(77,77,77);">2</text>
    </g>
    <g transform="matrix(4.16667,0,0,4.16667,2088.69,1773.79)">
        <text x="-2.784px" y="0px" style="font-family:'Lato-Regular', 'Lato', sans-serif;font-size:9.6px;fill:rgb(77,77,77);">3</text>
    </g>
    <g transform="matrix(4.16667,0,0,4.16667,2281.61,1773.79)">
        <text x="-2.784px" y="0px" style="font-family:'Lato-Regular', 'Lato', sans-serif;font-size:9.6px;fill:rgb(77,77,77);">4</text>
    </g>
    <g transform="matrix(4.16667,0,0,4.16667,2474.49,1773.79)">
        <text x="-2.784px" y="0px" style="font-family:'Lato-Regular', 'Lato', sans-serif;font-size:9.6px;fill:rgb(77,77,77);">5</text>
    </g>
    <g transform="matrix(4.16667,0,0,4.16667,2013.15,1859.34)">
        <text x="-24.922px" y="0px" style="font-family:'Lato-Regular', 'Lato', sans-serif;font-size:9.6px;">In Millionen</text>
    </g>
    <g transform="matrix(1,0,0,1,690.945,351.312)">
        <text x="236.22px" y="279.562px" style="font-family:'Lato-Bold', 'Lato', sans-serif;font-weight:700;font-size:58.333px;">21,1 Millionen Menschen mit einem sogenannten</text>
        <text x="236.22px" y="346.229px" style="font-family:'Lato-Bold', 'Lato', sans-serif;font-weight:700;font-size:58.333px;">Migr<tspan x="359.45px " y="346.229px ">a</tspan>tionshintergrund…</text>
        <text x="236.22px" y="421.229px" style="font-family:'Lato-Bold', 'Lato', sans-serif;font-weight:700;font-size:50px;fill:rgb(0,142,143);">V<tspan x="268.645px " y="421.229px ">o</tspan>n diesen leben 83 % in nur sechs Bundesländern</text>
    </g>
    <g transform="matrix(1,0,0,1,1683.07,1059.97)">
        <text x="236.22px" y="266.908px" style="font-family:'Lato-Regular', 'Lato', sans-serif;font-size:41.667px;fill:rgb(111,110,106);">Eine P<tspan x="348.97px " y="266.908px ">e</tspan>rson hat einen</text>
        <text x="236.22px" y="316.908px" style="font-family:'Lato-Regular', 'Lato', sans-serif;font-size:41.667px;fill:rgb(111,110,106);">sogenannten</text>
        <text x="236.22px" y="366.908px" style="font-family:'Lato-Regular', 'Lato', sans-serif;font-size:41.667px;fill:rgb(111,110,106);">Migr<tspan x="322.512px " y="366.908px ">a</tspan>tionshintergrund,</text>
        <text x="236.22px" y="416.908px" style="font-family:'Lato-Regular', 'Lato', sans-serif;font-size:41.667px;fill:rgb(111,110,106);">wenn sie oder mindestens</text>
        <text x="236.22px" y="466.908px" style="font-family:'Lato-Regular', 'Lato', sans-serif;font-size:41.667px;fill:rgb(111,110,106);">ein Elternteil im Ausland</text>
        <text x="236.22px" y="516.908px" style="font-family:'Lato-Regular', 'Lato', sans-serif;font-size:41.667px;fill:rgb(111,110,106);">geboren geboren wurde.</text>
    </g>
</svg>
