<?xml version="1.0" encoding="UTF-8" standalone="no"?>
<!DOCTYPE svg PUBLIC "-//W3C//DTD SVG 1.1//EN" "http://www.w3.org/Graphics/SVG/1.1/DTD/svg11.dtd">
<svg width="100%" height="100%" viewBox="0 0 3508 2481" version="1.1" xmlns="http://www.w3.org/2000/svg" xmlns:xlink="http://www.w3.org/1999/xlink" xml:space="preserve" xmlns:serif="http://www.serif.com/" style="fill-rule:evenodd;clip-rule:evenodd;stroke-linejoin:round;stroke-miterlimit:10;">
    <g transform="matrix(1,0,0,1,-3507.87,0)">
        <g transform="matrix(0.780108,0,0,1,4501.8,342.536)">
            <rect x="236.22" y="472.441" width="1464.57" height="1062.99" style="fill:none;"/>
        </g>
        <g transform="matrix(4.16667,0,0,4.16667,4688.76,814.977)">
            <rect x="0" y="0" width="1" height="1" style="fill:none;"/>
        </g>
        <g transform="matrix(4.16667,0,0,4.16667,4688.76,814.977)">
            <path d="M132.2,216.53L132.2,5.48" style="fill:none;fill-rule:nonzero;stroke:rgb(235,235,235);stroke-width:1px;"/>
        </g>
        <g transform="matrix(4.16667,0,0,4.16667,4688.76,814.977)">
            <path d="M163.06,216.53L163.06,5.48" style="fill:none;fill-rule:nonzero;stroke:rgb(235,235,235);stroke-width:1px;"/>
        </g>
        <g transform="matrix(4.16667,0,0,4.16667,4688.76,814.977)">
            <path d="M193.91,216.53L193.91,5.48" style="fill:none;fill-rule:nonzero;stroke:rgb(235,235,235);stroke-width:1px;"/>
        </g>
        <g transform="matrix(4.16667,0,0,4.16667,4688.76,814.977)">
            <path d="M224.77,216.53L224.77,5.48" style="fill:none;fill-rule:nonzero;stroke:rgb(235,235,235);stroke-width:1px;"/>
        </g>
        <g transform="matrix(4.16667,0,0,4.16667,4688.76,814.977)">
            <path d="M255.62,216.53L255.62,5.48" style="fill:none;fill-rule:nonzero;stroke:rgb(235,235,235);stroke-width:1px;"/>
        </g>
        <g transform="matrix(4.16667,0,0,4.16667,4688.76,814.977)">
            <rect x="132.2" y="20.46" width="116.73" height="11.72" style="fill:rgb(199,198,196);"/>
        </g>
        <g transform="matrix(4.16667,0,0,4.16667,4688.76,814.977)">
            <rect x="132.2" y="33.49" width="107" height="11.72" style="fill:rgb(199,198,196);"/>
        </g>
        <g transform="matrix(4.16667,0,0,4.16667,4688.76,814.977)">
            <rect x="132.2" y="72.57" width="87.16" height="11.72" style="fill:rgb(199,198,196);"/>
        </g>
        <g transform="matrix(4.16667,0,0,4.16667,4688.76,814.977)">
            <rect x="132.2" y="163.77" width="95" height="11.72" style="fill:rgb(199,198,196);"/>
        </g>
        <g transform="matrix(4.16667,0,0,4.16667,4688.76,814.977)">
            <rect x="132.2" y="137.71" width="106.6" height="11.72" style="fill:rgb(199,198,196);"/>
        </g>
        <g transform="matrix(4.16667,0,0,4.16667,4688.76,814.977)">
            <rect x="132.2" y="98.63" width="109.53" height="11.72" style="fill:rgb(199,198,196);"/>
        </g>
        <g transform="matrix(4.16667,0,0,4.16667,4688.76,814.977)">
            <rect x="132.2" y="46.52" width="114.64" height="11.72" style="fill:rgb(199,198,196);"/>
        </g>
        <g transform="matrix(4.16667,0,0,4.16667,4688.76,814.977)">
            <rect x="132.2" y="202.85" width="97.48" height="11.72" style="fill:rgb(199,198,196);"/>
        </g>
        <g transform="matrix(4.16667,0,0,4.16667,4688.76,814.977)">
            <rect x="132.2" y="59.54" width="129.93" height="11.72" style="fill:rgb(0,142,143);"/>
        </g>
        <g transform="matrix(4.16667,0,0,4.16667,4688.76,814.977)">
            <rect x="132.2" y="7.43" width="125.27" height="11.72" style="fill:rgb(0,142,143);"/>
        </g>
        <g transform="matrix(4.16667,0,0,4.16667,4688.76,814.977)">
            <rect x="132.2" y="85.6" width="128.99" height="11.72" style="fill:rgb(0,142,143);"/>
        </g>
        <g transform="matrix(4.16667,0,0,4.16667,4688.76,814.977)">
            <rect x="132.2" y="150.74" width="113.73" height="11.72" style="fill:rgb(199,198,196);"/>
        </g>
        <g transform="matrix(4.16667,0,0,4.16667,4688.76,814.977)">
            <rect x="132.2" y="124.68" width="86.53" height="11.72" style="fill:rgb(199,198,196);"/>
        </g>
        <g transform="matrix(4.16667,0,0,4.16667,4688.76,814.977)">
            <rect x="132.2" y="176.79" width="81.19" height="11.72" style="fill:rgb(199,198,196);"/>
        </g>
        <g transform="matrix(4.16667,0,0,4.16667,4688.76,814.977)">
            <rect x="132.2" y="111.66" width="121.75" height="11.72" style="fill:rgb(199,198,196);"/>
        </g>
        <g transform="matrix(4.16667,0,0,4.16667,4688.76,814.977)">
            <rect x="132.2" y="189.82" width="77.52" height="11.72" style="fill:rgb(199,198,196);"/>
        </g>
        <g transform="matrix(4.16667,0,0,4.16667,5191.97,1698.93)">
            <text x="-114.288px" y="0px" style="font-family:'Lato-Regular', 'Lato', sans-serif;font-size:9.6px;fill:rgb(111,110,106);">Mecklenburg-<tspan x="-55.814px -49.843px " y="0px 0px ">Vo</tspan>rpommern</text>
        </g>
        <g transform="matrix(4.16667,0,0,4.16667,5191.97,1644.64)">
            <text x="-43.277px" y="0px" style="font-family:'Lato-Regular', 'Lato', sans-serif;font-size:9.6px;fill:rgb(111,110,106);">Thüringen</text>
        </g>
        <g transform="matrix(4.16667,0,0,4.16667,5191.97,1590.35)">
            <text x="-65.501px" y="0px" style="font-family:'Lato-Regular', 'Lato', sans-serif;font-size:9.6px;fill:rgb(111,110,106);">Sachsen-<tspan x="-28.109px " y="0px ">A</tspan>nhalt</text>
        </g>
        <g transform="matrix(4.16667,0,0,4.16667,5191.97,1536.06)">
            <text x="-55.315px" y="0px" style="font-family:'Lato-Regular', 'Lato', sans-serif;font-size:9.6px;fill:rgb(111,110,106);">Br<tspan x="-45.418px " y="0px ">a</tspan>ndenburg</text>
        </g>
        <g transform="matrix(4.16667,0,0,4.16667,5191.97,1481.81)">
            <text x="-36.72px" y="0px" style="font-family:'Lato-Regular', 'Lato', sans-serif;font-size:9.6px;fill:rgb(111,110,106);">Saarland</text>
        </g>
        <g transform="matrix(4.16667,0,0,4.16667,5191.97,1427.52)">
            <text x="-33.36px" y="0px" style="font-family:'Lato-Regular', 'Lato', sans-serif;font-size:9.6px;fill:rgb(111,110,106);">Bremen</text>
        </g>
        <g transform="matrix(4.16667,0,0,4.16667,5191.97,1373.23)">
            <text x="-34.31px" y="0px" style="font-family:'Lato-Regular', 'Lato', sans-serif;font-size:9.6px;fill:rgb(111,110,106);">Sachsen</text>
        </g>
        <g transform="matrix(4.16667,0,0,4.16667,5191.97,1318.93)">
            <text x="-80.237px" y="0px" style="font-family:'Lato-Regular', 'Lato', sans-serif;font-size:9.6px;fill:rgb(111,110,106);">Schleswig-Holstein</text>
        </g>
        <g transform="matrix(4.16667,0,0,4.16667,5191.97,1264.64)">
            <text x="-39.485px" y="0px" style="font-family:'Lato-Regular', 'Lato', sans-serif;font-size:9.6px;fill:rgb(111,110,106);">Hamburg</text>
        </g>
        <g transform="matrix(4.16667,0,0,4.16667,5191.97,1210.39)">
            <text x="-68.438px" y="0px" style="font-family:'Lato-Bold', 'Lato', sans-serif;font-weight:700;font-size:9.6px;fill:rgb(0,142,143);">Rheinland-Pfalz</text>
        </g>
        <g transform="matrix(4.16667,0,0,4.16667,5191.97,1156.1)">
            <text x="-25.363px" y="0px" style="font-family:'Lato-Regular', 'Lato', sans-serif;font-size:9.6px;fill:rgb(111,110,106);">Berlin</text>
        </g>
        <g transform="matrix(4.16667,0,0,4.16667,5191.97,1101.81)">
            <text x="-63.557px" y="0px" style="font-family:'Lato-Bold', 'Lato', sans-serif;font-weight:700;font-size:9.6px;fill:rgb(0,142,143);">Niedersachsen</text>
        </g>
        <g transform="matrix(4.16667,0,0,4.16667,5191.97,1047.52)">
            <text x="-30.989px" y="0px" style="font-family:'Lato-Regular', 'Lato', sans-serif;font-size:9.6px;fill:rgb(111,110,106);">Hessen</text>
        </g>
        <g transform="matrix(4.16667,0,0,4.16667,5191.97,993.268)">
            <text x="-29.952px" y="0px" style="font-family:'Lato-Regular', 'Lato', sans-serif;font-size:9.6px;fill:rgb(111,110,106);">Ba<tspan x="-19.027px -14.237px " y="0px 0px ">ye</tspan>rn</text>
        </g>
        <g transform="matrix(4.16667,0,0,4.16667,5191.97,938.977)">
            <text x="-88.224px" y="0px" style="font-family:'Lato-Regular', 'Lato', sans-serif;font-size:9.6px;fill:rgb(111,110,106);">Baden-<tspan x="-58.234px " y="0px ">W</tspan>ürttemberg</text>
        </g>
        <g transform="matrix(4.16667,0,0,4.16667,5191.97,884.685)">
            <text x="-92.424px" y="0px" style="font-family:'Lato-Bold', 'Lato', sans-serif;font-weight:700;font-size:9.6px;fill:rgb(0,142,143);">Nordrhein-<tspan x="-44.472px -34.622px " y="0px 0px ">We</tspan>stfalen</text>
        </g>
        <g transform="matrix(4.16667,0,0,4.16667,5239.59,1765.02)">
            <text x="-6.557px" y="0px" style="font-family:'Lato-Regular', 'Lato', sans-serif;font-size:9.6px;fill:rgb(77,77,77);">0%</text>
        </g>
        <g transform="matrix(4.16667,0,0,4.16667,5368.18,1765.02)">
            <text x="-9.341px" y="0px" style="font-family:'Lato-Regular', 'Lato', sans-serif;font-size:9.6px;fill:rgb(77,77,77);">10%</text>
        </g>
        <g transform="matrix(4.16667,0,0,4.16667,5496.72,1765.02)">
            <text x="-9.341px" y="0px" style="font-family:'Lato-Regular', 'Lato', sans-serif;font-size:9.6px;fill:rgb(77,77,77);">20%</text>
        </g>
        <g transform="matrix(4.16667,0,0,4.16667,5625.3,1765.02)">
            <text x="-9.341px" y="0px" style="font-family:'Lato-Regular', 'Lato', sans-serif;font-size:9.6px;fill:rgb(77,77,77);">30%</text>
        </g>
        <g transform="matrix(4.16667,0,0,4.16667,5753.84,1765.02)">
            <text x="-9.341px" y="0px" style="font-family:'Lato-Regular', 'Lato', sans-serif;font-size:9.6px;fill:rgb(77,77,77);">40%</text>
        </g>
        <g transform="matrix(4.16667,0,0,4.16667,5510.3,1850.56)">
            <text x="-66.581px" y="0px" style="font-family:'Lato-Regular', 'Lato', sans-serif;font-size:9.6px;fill:rgb(77,77,77);">Anteil der wahlberechtigten mit</text>
            <text x="-77.362px" y="11px" style="font-family:'Lato-Regular', 'Lato', sans-serif;font-size:9.6px;fill:rgb(77,77,77);">sogenanntem Migr<tspan x="1.186px " y="11px ">a</tspan>tionshintergrund</text>
        </g>
        <g transform="matrix(1,0,0,1,4449.86,184.974)">
            <text x="236.22px" y="279.562px" style="font-family:'Lato-Bold', 'Lato', sans-serif;font-weight:700;font-size:58.333px;">...aber die Mehrheit der Menschen mit</text>
            <text x="236.22px" y="346.229px" style="font-family:'Lato-Bold', 'Lato', sans-serif;font-weight:700;font-size:58.333px;">sogenannten Migr<tspan x="707.67px " y="346.229px ">a</tspan>tionshintergrund ist</text>
            <text x="236.22px" y="404.562px" style="font-family:'Lato-Bold', 'Lato', sans-serif;font-weight:700;font-size:58.333px;">nicht wahlberechtigt.</text>
            <text x="236.22px" y="471.229px" style="font-family:'Lato-Bold', 'Lato', sans-serif;font-weight:700;font-size:50px;fill:rgb(0,142,143);">In den meisten Bundesländern dürfen weniger als</text>
            <text x="236.22px" y="529.562px" style="font-family:'Lato-Bold', 'Lato', sans-serif;font-weight:700;font-size:50px;fill:rgb(0,142,143);">40 % der Menschen mit Migr<tspan x="869.82px " y="529.562px ">a</tspan>tionshintergrund</text>
            <text x="236.22px" y="587.895px" style="font-family:'Lato-Bold', 'Lato', sans-serif;font-weight:700;font-size:50px;fill:rgb(0,142,143);">wählen.</text>
        </g>
    </g>
</svg>
